<?xml version="1.0" encoding="utf-8"?>
<!-- Generator: Adobe Illustrator 21.0.2, SVG Export Plug-In . SVG Version: 6.00 Build 0)  -->
<svg version="1.1"
	 id="svg2" inkscape:version="0.41.1" sodipodi:docbase="/home/molotov/images/wikipedia/svg" sodipodi:docname="New_Jersey_Outline_map.svg" sodipodi:version="0.32" xmlns:cc="http://web.resource.org/cc/" xmlns:dc="http://purl.org/dc/elements/1.1/" xmlns:inkscape="http://www.inkscape.org/namespaces/inkscape" xmlns:rdf="http://www.w3.org/1999/02/22-rdf-syntax-ns#" xmlns:sodipodi="http://inkscape.sourceforge.net/DTD/sodipodi-0.dtd" xmlns:svg="http://www.w3.org/2000/svg"
	 xmlns="http://www.w3.org/2000/svg" xmlns:xlink="http://www.w3.org/1999/xlink" x="0px" y="0px" viewBox="0 0 1426.2 2699.9"
	 style="enable-background:new 0 0 1426.2 2699.9;" xml:space="preserve">
<style type="text/css">
	.st0{fill:#444444;}
</style>
<sodipodi:namedview  bordercolor="#666666" borderopacity="1.0" id="base" inkscape:current-layer="svg2" inkscape:cx="713.09997" inkscape:cy="1349.9500" inkscape:pageopacity="0.0" inkscape:pageshadow="2" inkscape:window-height="1184" inkscape:window-width="873" inkscape:window-x="128" inkscape:window-y="-17" inkscape:zoom="0.37408794" pagecolor="#ffffff">
	</sodipodi:namedview>
<g id="use26">
	<g id="state_outline">
		<path id="_x31_757" class="st0" d="M751.8,0l38.7,24.2l37,22.9l57.6,34.7L991,147.4l22.6,15l13,8.7l28,18.6l7.2,4.6l6.6,3.5
			l70.8,39.7l7.1,4l10.5,5.6l50.2,27.1l108.6,63.4l20.3,12.3l13.8,7.6l66.3,37.9l3.5,1.9l6.7,1.2l-2.2,17.4l-2.3,9.2l-5.6,22.7
			l-3.3,13.5l-5.8,22.2l-3.4,13.1l-5,13.5l-5.4,15.5l-1.4,4.1l-10.6,27.9l-11.5,26.8l-1.3,2.9l-5,11.7l-5.7,11l-6.6,11.6l-1.5,2.6
			l-4.4,7.9l-7.1,12.8l-4.3,8.2l-3.7,5l-2.5,4.9l-1,5.5l-1.5,7.6l-0.3,1.6l-2.8,13l-3.5,21.6l-2.2,12.7l-0.1,0.6l-6.4-1.2l-1.6,3.1
			l-1,2l-4.6,4l-2,1.5l-2.6,4.1l-3.1,5l-3,0.5h-5.7l-2.5,1.1l-1.6,3.5l-1,6l-5.6,4.1h-5.1l-4.1,2l2.6,4l4.1,2l6.1,2.5l2.6,5.1
			l-2.6,2l-3.1-1l-3-1l-3.1-1l-8.2-3l-4.1-1l-2.6,4.5l1.6,3l4.1,3.1l1.5,3.5l-3.6,2l-3-0.5h-3.6l-4.6-0.5h-7.2l-4.1,2.5l-5.6,0.6
			l-1.6-1.5v-2.1l1-4l1.6-6l2-5.1l2-6l4.6-7.6l4.1-2l4.6-7.1l4.6-7l2.1-6.1v-3.5l-1.1-9.6h-5.1l-5.1,1.6l-2.6,0.5l-4.6,3l-4.1,4
			l-1.5,4.6l-1.5,4l-3.1,6l-5.6,4.6l-4.6,4.5l-2.1,5.1l-0.5,4.5l-1.5,5l-4.6,6.1l-4.1,6.1l-2.5,4.5l-5.7,4l-5.1-0.5l-7.7,1.6l-5.6,4
			l-4.6,3.5l-3.6,4.6l-3.1,7l-1.5,6.6l-1,8l-1,8.1l0.5,6.5l0.5,9.1v1.5l-2,6.6l-2.5,7l-1.6,10.1l-2,8.6l-2.5,3l-7.2,1l-4.6,1
			l-4.1,2.1l-5.7,4.5l-3.5,7.1l-2.1,4.5l-1,5.5l1,7.1l1.6,5l-0.5,4l-2.1,4.1l-3,3.5l-2.1,4l-1.5,3.6l-0.5,4l-1,3.5l0.5,4.1v5l-2.6,5
			l-4.1-0.5l-2.5-3l-3.1-5l-3.6-2.5l-5.6-2l-8.2-3h-6.7l-5.1,1l-3.1,4l-2,5.6l-6.2,6.5l-5.1,5.1l-7.2,4l-5.1,3.5l-6.1,5.1l4.6,2
			l6.7,1.5l12.8-1.5l3.6-4.1l3-8l5.1-10.6l8.7-3.1l9.8,3l14.3,11.1l0.6,6.5l5.6,11.6l7.2,3.5l9.7,5l11.3,6.1l6.7,2l5.6,1.5l6.7,5
			l1.5,4.5l-1,3.6l-2,2l6.1-0.5l10.8-6.6l5.6-11.1l4.6-5.5l4.1,3l7.2,6l9.2,1.5h7.7l4.6-5.6l1.5-0.5h4.7l6.6,4l6.2,4.6l4.6,3.5
			l8.2,1.5l11.8,4.5l9.7,6l5.7,5l7.7,4.5l4.1,3.6l7.7,2l6.6,1l5.2,3l8.2,1.5l18.4,2.4l7.2,3l3.6,5.1l3.1,5l4.1,4.5l0.5,5.1l0.6,6.5
			l1,5.5l-0.5,4.1h-3.1l-1.5-2l-2.6-2.5l-2.1-1.5l-2-3.1l-6.2-1l-4.1-2l-4.6,2.1l-2,2.5l-3.6,3l-4.1,3.5l-2.6,0.5l-3.5,1.6l-2.6,2.5
			l-1.5,3l-5.2,1.5l-4.6,1.6l-4.6,4l-8.2,5l-2,3.6l1,5l3.6,2l4.1-2l3.1-4l4.1-3.1l5.1-4h2.6l6.1-0.5l2.6-1l2.5-5.6l3.6-2.5l5.1-1
			l4.6-3.1l6.7,0.5l4.6,1.5l4.6,2l5.2,2l1,3.1l-0.5,7l-2.1,5.6l-5.1,4.5l-6.6,3l-4.1,3.6l2,3l-1.5,3.5l-6.6,2.5l-4.7-1.5h-3.6
			l0.6,3.1l2.5,3.5l1.6,4.5l-2.1,4v3.6l1.6,2h3.1l1.5-1.5l1.5-3.1l2.6-3.5l3.6,1l1,2.5l4.1,1l2-3.5l0.6-1.5l2-3l-1-4.6l3-2l3.6,0.5
			h3.6l3.6-7.6l2-7l1-6.6l1.6-9l-1.1-7.1l-0.5-10.1v-4.5l-1-4.5l-0.6-3.5v-2.6l-1-7v-5l-2.6-6.6l-5.7-12.6l-4.6-11.5v-3.5l2-4.1v-4
			l-3.6-3.5l-2.5,0.5h-3.6l-5.6-1l-0.6-6.1v-5l-0.5-3.5l-2-5l-4.2-2.6v-3l2.6-2l4.1-1.5l2.6,2l4.6,3l2.5,1.5l5.7,7.6l2.6,4.5l2.5,7
			l3.1,9.1l1.6,6l2.5,3.5l0.1,6.1l1,9.6l2.1,8.5l0.5,7.6l0.5,7.5l2.1,5.5l0.5,1.6l1,2.5l-0.5,7.5v8.6l-1,9.1l-1.5,12v12.6l2.1,10.6
			l-1,6l-0.5,2.1l-2,9.5l-4.1,7.1l-2.1,7.5l-0.5,11.1l0.6,6.1l0.5,9l-2,12.6l-2.6,9.1l-1.5,7.5l-4.1,11.1l-3.6,7.1l-2,4.5l-2.6,7.1
			l0.1,7.5v11.1l-2.6,7.6l-4.1,9.5l-2,8.6l-3.6,2l-4.1,0.5l-5.6-2.5l-2.1-2l-2.5-3.5h-4.1l-1.1,2.5l-2,3.6l-4.6,0.5l-2.6-2l-4.1-3.6
			l-4.6-1l-2.1,4.1l0.6,3l2.5,2.5l5.7,5.5l7.7,3l7.2,1l5.6-2l5.6-3l2.6,0.5l2,3l-0.5,6l-1,5.6l-3,11.6l-1.6,8l-3,11.6l-1,12.6v10.6
			l-0.5,10.5l-5.1,5.6l-6.7-0.5l-3.6-1.5l-2.5-1l-2.1,1.5l-5.6,3l-7.2,3.6l-5.1,1l-3.1-2.5l-2.5-3l-4.7-3l-3.6-7.1l-2-5.5l-1.1-3.5
			l-2,1.5l-1.5,3l2,13.6l1.6,7l6.1,6.6l5.2,0.5l8.2,3l6.6-2.1l7.2-5l9.2-1.5l7.2,1.4l3.6,2.1l0.5,0.5l1.6,2.5v5.5l0.5,7.1l-0.5,6.5
			l-2,10.1l-2.1,7.5l-2,6.6l-3.6,8.5l-2,5.1l-2.1,7.5l-2,5.6l-2,11.1l0.5,5.5l0.5,10.1l-4.1,16.1l-1.5,20.1l-2.5,11.6l-2,9.1
			l-2.1,7.5l-1.5,10.6l-2.5,13.6l-2.1,9.6l-0.5,13.6l-2.5,17.1l0.5,10l0.6,9.1l-1.1,8.6l-2.5,9l-1.5,9.1l-1,6v8.1l-1.5,9.1l-1.6,4.5
			l-1.5,5.5l-1,8.1v19.1l-1,6.1l-1.5,5l-1,4l-2.1,3l-0.5,2.6l-1,0.5l-3.1,0.5l-2.6-3.5l-2-1.6l-3.6-0.4h-2.6l0.5-3.1l0.5-2l2.1-1.5
			l3.6,1.5l3.1,0.5l2.5-4v-4.6l-1.5-4l-1.6-5l0.5-5v-3.1l1.5-3.5l3.1-7.5l2.6-7.1v-4l-0.1-10.1l-0.5-9.6l0.5-8.5l1.5-8.6l1.6-10
			l0.4-8.1l-0.5-5v-8.1l0.5-4.5l1-7.1l1-7.5l1.1-8.6l1.5-8.5l1.5-3.1l1.5-3.5l2.6-4.5l1.5-5.6l1-6l-0.5-5l-2-4.6l-3.1-3l-1.6-2.5
			l-0.5-4l2.1-2l3.6-3.1l2.5-7.5l1.5-7.1l1.6-7l0.5-7.6l2.5-8l1-4.6l3.1-7l1.5-4.6l1.5-4.5l1.1-8l-0.6-4.1v-11.6l-0.5-6.5v-5.5
			l2-5.6l1.6-5.5l1.5-3l0.5-2.6l-1-0.5l-6.7-1.5l-3.1,2.1l-4.1,3l-3,2l-5.2,3.5l-4.1,1.6l-5.1,2l-6.1-2l-6.7-1l-9.2-1.5l-4.7-5
			l-5.6,2.5l-0.5,4.5l3.1,3l5.1,0.5l2.6,3.1l3.1,2.5l5.1-1.1h5.1l2.1,3.1l5.6-2.1l5.6-2.5l7.2-1.5l5.7,1l0.5,4.5l-0.5,2l-1,6.1
			l-2.1,3.5l-7.2,5.5l1.1,5.6l-2.6,7.5l-5.6,0.5l-3.6,0.6l-2.1-3.1l-1-4.5l-3.1-2.5l-4.6,1.5l-3.6-1l-3.1-1.5l-4.1-3l-3.6-5l-3-3
			h-4.1l-3.1,3l0.5,2l2.1,1.5l4.6,4l2,2.5l-5.1,6.6l1.1,3l2.5,0.5h10.3l6.1,2l3.1,2.5l2.1,3l-1.6,4.1l-3,1l-2.6-1l-2.1-1.5l-3,3
			l-1.6,2h-4.6l-4.6-1.5l-4.6-1l-1,2l-2.1,2l-2,5.6l1.5,4l3.1,2l6.2,2l4.6-1.5l2-2.5l2.6-1.5l3.1,2l1.5,1v2.5l-0.5,2l-2.6,2
			l-0.5,2.5l1.6,1.6l2,2.5l3.1,2l1,2v1.5l-2,4l-1.5,5.6l-2.1,2l0.5,2l1.1,3l0.5,1.5l-1.1,2l-0.5,3.6l-1.5,4.5l-2.5,3l-3.6-0.5
			l-2.6,0.5l-1.5,2.1l-3.1,3l-3.1,0.5l-4.1-1l-6.1-1l-5.2-1l-5.6-5l-2.1-2l-4.1-3.1l-3.6,1.1l-3.6,1h-3.5l-8.2,0.5l0.5,2v5.6l2,1.5
			h1.6l4.6-0.6h3.6l5.6,1.5l3.1,1.5l4.1,4.1l4.6,3l3.6,2.5l3.1,1l6.1-1.5l6.2,0.5l6.7-0.1h5.6l4.6-0.5l3.1,1l1.5,2v3.6l-2,2
			l-3.1,1.5l-2.5,1.5l-4.6,4l-3.1,4.1l-3.1,6l-5.1,9.1l-2.5,8.1l-2.1,6l0.5,6.5l0.6,3.6l-2.1,4l-3.1,0.5h-6.6l-3.6,0.5l-2.1,0.5
			l-1,4.1l1.1,1.5l2,0.5l3.6,1h4.1l3.6-1.1l5.1,0.5l3.1,1l3.1,4.1l-2.6,2.5l-4.1,1.5l-4.1,1l-2,1.5l-1.6,4.1l-0.5,4.5l-2.5,7.5
			l-3.1,5.1l-5.1,2.5l-5.7,1.5l-4.1,2.6l0.1,3.5l2.5,1l4.1-0.5l4.1,1l1.1,4.5l-5.2,1.5l-7.7,3.6l-2.5,7.5l0.5,5.5l-2,8.1l-4.6,4
			l-3.1,3.1l-3.6,4l2.1,5l1.5,3l2.6,3.6v2.5l-1.5,2l-2.1,3l-1,2.5l-2.1,2.1l-1,4v2l-0.5,3v5.1l-0.5,4.5l1.1,5.5l3.6,1l4.1,1l7.6,1
			l6.2,1l0.5,1.5v2.5l-1.5,6.6l1,2.5l2.1,2.5l-0.5,3l-3.6,0.5h-2.1l-3-0.5l-4.1,0.1v2l1.5,2l1,2l2.6,1l2.6,0.5h5.1l5.6,1.5l-0.5,2
			l-1.5,2l-2.6,1.5l-1,1.5l-1,4.1l-3.6,0.5l-4.6-2l-2.6,0.5l-1.5,4.5v6l-2.1,1.1l-6.1,3l-2.1,4l-1.5,2.5l-1.5,4.1l1,1l3.1,0.5l3.6,1
			l0.5,2l-2.6,2l-3.6,2l-6.1,4.1l-6.1,1l-2.6,3l-1.5,2.5l-2.1,1.5l0.5,4.1l-0.5,3l-4.6,3.5l-1,5l-0.5,1.1l-2.6,4l-2,0.5l-2.6-1.5
			l-3.6-0.5l-2.5,2.5l-6.2,2l-3.6-1l-1-1l-2.1,1l-1.5,2.6l1,8l2.1,4l-0.5,1l-3.6,0.6l-3.6-1.1v5.6l-1.5,3l-3.6,3.5l-0.5,1.5
			l-0.5,3.1l2,3.5l1.6,3.5l-2.1,2l-3,1l-5.2,0.6l-3-3.6l-2.1-2l-6.2,2l-1,2.6l1.1,4.5l-0.5,4.5h-2.6l-2.6-4.5l-2-2.5l-1.6,0.5l-3,2
			l-5.2,3l-2,5.1l-1,7l-0.5,5.6l-4.1,0.5l-4.6,2l-0.6,2.5l-1,3l-2,4.1l-3.6-1l-2.1-3.6h-3l-1.1,3.1l-0.5,6.5l1.1,4.5l3.1,3.1
			l3.5,2.5l0.6,3l1,4.5l4.1,1l2,2l2.1,4l4.1,2.6l6.7,2.5l5.6,5l-1.5,3.5l0.5,4.5l2.1,4.1l-6.7,7l-2.5,3.5v6.1l-5.7-1.5h-6.1l-5.7,4
			l-1-1.5l-1-1l1-4l0.5-3.5l-0.5-4.1l1.5-1.5l4.1-1l-1-2.5l-3.6-3.5l1-3l1.6-3.1l-5.7-3.5l-6.7-5.5l-7.1,4l-8.2-1.5l-0.6-5l-5.6-2.5
			l-3.1,3l1.6,7.1l-7.7-1.5l-9.3-1l-6.1,0.5l-4.6,0.5l-1.6-4.5l-0.5-7.6l-5.1-3.5l-7.2-4.5l-3.6,1.5l2.1,7.1l1,7l3.6,9.6l-4.1,1.5
			v3.5l-0.5,11.6l8.7,9.5l-0.5,9.1l4.2,7l13.3,12.6l2.6,7l-3.1,4.1l-6.1-1.5l-2.1-5.1l-8.7-1l-4.6,5.6l1.5,3.5l5.7,0.5l5.1,9
			l-1.5,4.1h-5.2l-2,4l1.5,6l3.6,5.1l4.7,9.5l-7.2,4.6l-4.1,3l-5.1-4l-2.6-4l-3.6-5.6l-2.6-7.5l1-4.1v-1l-2.5-0.5l-8.2-0.9l-1.1-4.1
			l-4.6-0.5l-2,2.5l1,7.1l-2.5,5l-6.7-0.5l-3.6,6.1l-0.5,17.1l-3.6,7l-12.8,4.1l-3,3.5l2.5,12.6l0.1,11.6l5.1-4.6l8.2-2.5l8.7-1
			l9.7,3l4.7,3v3l-1.1,3l0.6,2.1h1l2-0.1l5.2,1l2,1.6l1.1,3.5l-1.1,2.5l-0.5,2l1.1,1l5.6,1l3.1,0.5l2,2l1.1,4l1,3.6l0.5,2l0.5,2.5v1
			l0.5,1.5l-5.6,4.5l-10.8,6.6l-10.7,7.1l-9.2,5.5l-7.7,3l-10.3,4.1l-8.7,3l-7.2,5.1l-7.6,7l-7.2,5.1l-4.6,3l-3.6,4l-4.1,4.6
			l-3.6,1.5l-3.6-0.5h-2l-1.6-1l0.5-2l2.1-5.1l2.5-2.5l3.1-3.5l1.5-3.5l1.6-4.6v-5l1-3l0.5-3.6l3.6-1.5l4.6-2.5l2.6-1.5l3-2.5l2.1-2
			l2.5-2.6l0.6-0.5l1-4h-2.6l-2.6-3l5.7-3l5.6-6.6v-1.5l0.5-2.5l-0.5-6.6l-1-2.5l-5.7-3l-9.7-0.5l-3.1,0.5l-8.7,4.1l-1,7.5
			l-2.1,12.6l-3.5,2.5l-4.1,5.6l-0.5,10l-5.2,0.6l-3.6-2.1l-6.1-4l-3.1,1.5l-2,4.1l-5.2,11.1l3.6,7l1.6,6.5l-4.1,5.1l-5.6,6
			l-7.2,0.5l-7.2-4l-15.4-1l-7.7,4.6l-7.2,0.5l-5.1-3l-3.1-3.6l-2.5-0.4l-3.6,3.5l-2.6,3.5l-3.6-1l-4.6-3l-5.6-3l-5.7,5.5l4.7,3.5
			l4.1,6.6l-4.1,5.5l-3.1,3.5l7.7,2.6l9.7-1.1l8.8,3l5.6,2l1,4.6l-1.5,2.5l-3.6,11.6l-2,7.5l1,3l1.6,0.5l3.5-4l5.2-3.5l2.5-1.5
			l3.6-2.6l2.6-3l0.5-3v-3l-1.1-2.5l-1.5-2l-0.5-1l0.5-2.1l1.5-3l1.6-0.5l1.5-0.5l4.6,3.5l5.2,2l5.6-3.5l4.6-3l5.6-4.1l3.1-3l5.7-2
			l4.6-0.5l2.5,2.5l3.1,6l-3.5,13.6l-5.2,3l-9.7,3.6l-9.2,2.5l-9.8,8.1l-8.2,9l-4.6,7.1l-2.5,7.5l-4.6,11.1l-3.6,6.1l-4.1,4l-5.1,4
			l-5.7,1.6l-3.5-0.5l-4.2-0.5l-4.1,2l0.1,4l-0.6,2.5l-2,3.5l-2.1,0.5l-3,0.1l-2.1,1.5l1.6,2l3.6,1l4.1,1.5l1.5,1.5l-0.5,5.5
			l-5.6,6.1l-3.6,5.5l-4.1,6.6l-3.6,4l-2,3.5l-2.1,6.1l-3.1,6.5l-1.5,5l-3.1,4.6l-3.5,6l-4.1,3l-4.7,2.6l-1,3l-2,5l-1,3l-1.6,4.1
			l-2,1.5l-3.1,2l-2,0.5l-1.6-1l-1-2v-5.6l1.5-4.5l1-3.5l0.5-3.5l0.5-2.5l-1-1.6l-4.1,1.1l-1,0.5l-2.6,3v3.5l-1,4.5v4.1l-2,4
			l-12.8,1.5l-3.6,4l1.5,1l3.6,1.6l5.1-0.1h3.6l-1.5,4.6l-1,5.5v1l1,1l4.1-1l4.1-2.5l8.7-2.5l2.1,0.5l1,0.5l2.1,6v5l-4.6,6.6l-5.7,6
			l-4.1,6.6l-4.1,7l-5.1,9.6l-4.1,9.1l-3.6,6l-4.6,7.5l-5.6,5.1l-4.1,3.5l-4.6,5.6l-2.6,3.5l-1.5,1l-1,1l-3.6,2.5l-2.1-10l0.5-3.6
			l0.5-5.5l2.6-4.5l1-3.1l2.1-5.5l6.6-2l4.1-2.5l2.6-2.6l1-2.5l-1.5-3.5l-2.6-3.5l-1.5-2l-2.1-6.1l0.5-4l2-4.5l1.1-4.5l-1.1-6.6
			l-0.5-2.5v-1.5l-0.5-3.5l-2.6-3.5h-2l-3.6,1.5l-5.7,1l-5.1,1l-6.6,1.5l-1.1,5l-1,6.1l6.7,10.5l6.1-5.5l1.6-0.5l2.1,10.6l1.5,6.5
			l1,0.5l1.6,1l1,4l-0.5,4.6l-1,2l-2.1,2l-2,1.5l-4.6,4.5l-2.1,4.1l-2.5,6l-2.1,7.6l-1.5,6l-3.6,2.5l-5.6,0.5l-1.6,1.5l1,3.1l1.1,2
			l2,3l1.1,3v2.5l3.1,4.5l3,2.6l1.1,3.5v3.5l-4.1,7.5l-7.2,8.1l-10.2,8.1l-7.2,5.5l-7.2,6.6l-5.1,6l-5.1,4.5l-5.2,3.1l-6.1,4
			l-5.1,3.5l-2.1,3.1l-1,1.5l-1.5,1l-3.1-3l1.5-7.1v-4.5l-1.5-4l-1.6-3.6l0.5-4.5l2.1-1.5l1-1h4.1l2.6,3l3-0.5l4.7-2.5l2.5-2l1-2.6
			l0.6-2l2-4l-0.5-0.5l-2.1-2l-1.5-2l-3.6-1l-6.2,3l-4.1,1.5h-4.1l-3-3.5l-1.6-0.5l-2.5,1.5l-1.1,0.5v2.5l2.1,2.5l1.5,3.1l0.6,2.5
			l-1.1,3.5l-4.1,2l-4.1-2.5l-4.1-1.5l-2.6,2l1.1,5l0.5,1.1l2.6,1l3.6,0.5l3,1.5l1.1,3v5l-0.5,0.5l-5.7,2l-4.6,1h-3.1l-9.7,0.1
			l-3.1,3.5l-0.5,2.5l3.6,2.5l6.1-0.5l3.6-1.5l1.1-0.5l3.5-0.5l2.6-1l3.1-1l4.6,1l1,4l-4.1,4.5l-4.6,3l-3.6,1.6l-2,0.5l-10.8,3.5
			l-5.6,1l-9.2,2l-7.7,2.1l-6.2,1.5l-8.7,2.5l-7.2,0.5h-6.1l-4.7-1.5h-4.1l-2.5-1.5l1-2.5l2-4.5l0.5-1l-3.5-5.6l-1.6-3.5l0.5-4.5
			l5.7-3l1.5-4.6l1-5.5l0.5-4.5l-0.5-2.6l-1-2l-1.1-4.5l1.1-3v-2.5l0.5-5.1l1-3.5l1-2.5l4.1-7.1l1.5-4l4.1-10.1l2.6-8l1.5-7.6l1-5
			l1.6-5.5l5.1-5.6l4.6-6l5.1-5.6l4.6-4.5l3.1-9.1l2-7.5l1.6-8l2-6.6l2-4l6.2-8.6l3.6-8.5l1.5-5.1l0.5-2.5l3.6-6l2.5-6.1l1.1-7
			l-1.1-9.6l-1.5-5.5l-1.1-6.1l0.5-5.5l-0.5-5l-2-3.5l-5.2-5.1l-2.5-5.5l-3.6-6.5l-4.1-3.6l-8.3,0.1l-6.1-2.6l-5.7-2.5l-8.2-6
			l-8.2-3.5l-8.2-3l-7.7-0.5l-17.4,3.5l-10.8-3l-11.8,0.5l-6.7,1.1l-4.1-3.6l0.5-4l5.2-4l-3.6-8.6l-2.6-2.5l1-3.5l-1.5-2.5l-5.2-2
			l-7.1,1l-2.1,3.5l-1,3l-18.5,2.6l-12.3-1l-11.3-1.5l-3.5,2l-2.1,2.5l-5.6,0.5l-4.1,1.5l-1.1,4l-1.5,5.6l-0.5,6l-2.5,4.6l-5.7,2.5
			l-8.2,2.5l-2-1.5l-3.6-3.5l-4.7-6.6l-5.1-7l-7.7-4.5h-4.6l-0.5-2.5l0.5-3.6l4.6-1l2.6-1l0.5-4l-3.1-3l-3.1-1.5v-4.1l2.6-4l2-4.5
			l-0.5-7.1l-7.2-11.5l-6.7-3.5l-4.1-0.5l-2.6,2.5l-3.5,2l-2.6-0.5l-1.5-5.5l-0.6-8.6l-2.5-2l-5.7-2.5l-7.2-2.5l-7.1-2.5l-8.3-6.1
			l-5.6-3.5l-4.1-5.5l3.6-1.5l4.1-4.6v-5.5l-3.6-2l-5.2-1.5l-4.1-0.5l0.5-6.6l-2-2h-7.2l-11.8,0.1l-3.1,2l-1.5,3.5l-2,4.5l-3.6,3.5
			l-4.6-2.5l-4.7-6l-13.8-8.5l-1.6-2.6l-1-3l1.5-4v-4l-3.6-9.1l-4.1-4l-1.5-3l-1.1-5.6l-0.5-6l-2.5-6l-6.7-2.6l-9.2-1.5l-1.6,1.1
			l-1.5,0.5l-1,5l-2.1,3.5h-5.6l-2.1-3l-7.2-7.5l-4.6-5.1l-4.1-3.5l-4.6-2l-1.6-3l-1-14.1l-3.6-5v-5.1l-5.1-3.5l-1.1-5l1.6-4.1
			l-3.1,1.1l-7.2,2.5l-5.6,2l-6.2-3.5l-4.1-7.1l-5.1-4.5l-4.1-2.5l-6.2-5.5l-3.6-9.1l-5.1-10.1l-10.8-11l-9.2-9.6l-7.2-3l-3.1-2
			l-6.7-6.5l-5.6-4.6l-6.2-0.5l-4.1,1.6h-6.7l-7.2,4.5l-7.7-8.5l-2.7-3.4l-7-10.4L0,2081.1v-4l0.8-3.1l1.8-6.4l1.1-2.5l1.6-3.5h6.6
			l9.3-0.4l9.4-0.5l1.6-0.8l1.4-0.8l1.6-0.9l-2-6l-0.5-1l-0.5-2.5l0.5-3.1l0.5-1.5l1-2.5l0.5-2.5l-0.5-1.5v-4.5l1-4.1l0.5-5.5v-4
			l-0.5-1l-1.3-0.9l-1.8-1.2l-1-2l-0.5-1.5l0.5-3l1.5-2l3.6-3l3.1-3.1l2-2.5l1.5-2.3l1.6-2.7l1.6-3l1-3.6l2.5-5.5l0.5-4l-0.5-3.5
			l-1.5-3.6l-2.1-2.5l-3-2.5l-7.2-2l-2.1-1.5l-1.5-1.5l-1.1-2l-1.5-2v-1.6L29,1954l-1.6-1.5l-2-0.5l-2.1-0.5l-2-1.5l-4.1-2.5l-3.1-3
			l-1.5-2.5l-0.5-1.7l-0.6-1.9l-1.5-7.1l-1.6-6.9l-0.5-5.1l0.8-2.1l1.8-5.4l1.5-3.1l2.1-2.5l2.5-2l1.6-1.5l1.5-2l2-2l2.6-2l3.6-1.6
			l3.1-2l0.5-1l1-1l1.6-2l1-2.5l1.5-2l1.6-2.5l2-2.1l2-2l2.1-2.5l2-2.5l2.1-3l1.5-3.1l0.5-3l0.5-4.5l0.6-2.5l0.5-4.5l0.5-4.1l0.5-4
			l1-3l1.5-2.5l2.2-1.7l3.4-3.3l1.1-1.6l2.3-4.6l2.3-4.5l0.5-2l1-2l1.6-0.5l1,0.5l2.6,0.5H76l1-1.5l0.6-1.5l0.5-2v-3l1-4.6l0.5-3
			l0.5-3.5l1-3l2.1-4.1l1.5-3.5l2.1-4l2-4.5l1.5-4.6l1.1-3l1.5-3l1-3l1.6-2.1l2-2l2.1-1l2-3l3.1-3l6.1-6.6l6.2-5.5l2.6-2.5l1.1-1.1
			l4.5-2.5l0.6-0.4l4.5-2.6l8.2-3.5l4.1-2l-7.7-6.9l24.7-18.4l14.7-12l5.7-6l6.6-5.1l5.1-3.1l4.1-2.4l4.2-1.9l1.5-0.6l3.6-1.1
			l4.1-1.1l5.1-0.4h5.1l6.2,0.6l8.3,1.6l8.1,1.3l5.8-0.4l5.1-0.6l5-1l5.6-1.5l6.2-1.8l6.1-1.2l6-1.4l10.4-3.7l9.4-4.1l6.3-3.9
			l1.1-0.7l5.7-4.8l6.3-5.8l1.5-2.3l0.7-0.5l1.7-1.2l0.9-0.5l1.8-1.4l2.9-1.1l0.9-0.1l1.8-0.3l3.6-0.2l6,0.7l6.6,0.2l5.9-0.2l4.4-1
			l2.7-0.7l0.5-0.2l3.2-2.3l3.5-3.4l0.6-0.7l2.5-3.3l2.5-4l1.6-3.6l1-4.5l0.3-1.6l0.5-3.4l0.1-4.5l-0.5-3l-0.9-3.1l-1.4-4l-0.9-3.1
			l-0.9-4.5l-0.9-4.6l-0.3-4.6l-0.4-4l-0.4-4.4l0.7-4l0.4-2.7l1.3-3.4l1.2-2.5l2.5-3l3.3-3.2l0.9-1l1.6-1.1l4.7-3.4l6.9-4.4l6.2-2.3
			l3.6-1.2l6.6-2.1l6.7-2l5.7-2.8l4-3.2l3.7-3.2l3.1-3.6l3-3.3l1.5-3l1.6-3l1.5-3.1l1-3.5l2.2-3.4l1.2-2.4l2.7-2.8l2-2.2l3.1-1.9
			l3.7-1.9l4.1-1.4l4.2-1.4l5.5-1.8l5.3-2.6l2-1.2l2.8-2l3.7-2.7l0.4-0.3l3.7-2.8l3.2-2.9l0.9-1.1l2.3-2.9l4.3-4.9l2.1-2.4l3.1-2.4
			l3.5-3l2.3-1.9l1.3-1.1l5.2-3.1l6.4-3.2l10.5-6.9l8.2-5.5l4-2.3l4.1-0.9h1.2l2.9,0.1l5.7-0.4l3.1-0.3l3.1-0.9l3.1-1l3.6-0.9
			l3.1-0.9l2.7-1.2l4.1-1.5l4.6-1.5l3.8-1.4l3.1-1.6l3.2-1.3l2.9-1.3l3.1-1.4l1.6-1.5l2-2.1l1.4-2.1l1.4-2.2l1.8-2.2l2.1-1.9
			l2.5-1.8l3.6-1.8l3.1-2l2.6-2.1l1.9-2.5l1-3.5l0.6-4.5l1.7-4l1-3.8l2-3.3l1.9-2.6l2.1-2l2.6-1l3.1-1h3.5l3.6,1l4.7,1.9l0.4,0.2
			l4.7,2.4l2.9,0.8l2.6,0.5l0.6,0.2h2.6l2.4-0.4l2.1-1l2.1-1.6l0.5-0.3l2.1-2l2.6-1.9l2.5-2.3l3.1-2.1l3.3-1.4l0.6-0.2l2.5-0.9
			l4.1-0.5l3.9-0.1h2.8l2.6-0.8l3.7-2.4l3.6-2.9l4.2-3.4l4-4.1l2.1-4.5l0.4-0.8l1.5-3.8l-0.2-6.2l-1.7-4.8l-2.6-4.4l-3.4-4.4l-3-2.5
			l-0.6-0.6l-2.2-2.1l-1.7-2.1l-0.9-0.5l-3.6-1.5l-2-1l-2.1-1.5l-2.5-2.1l-2.1-1.9l-1.5-2.6l-0.7-1.8l-1.1-3.1l-0.3-2.6l-1-2.5
			l-2.1-3l-1.8-3.5l-1.5-3.6l-1.4-3l-2-3.6l-2-2.9l-1-1.1l-1.9-1.7l-3.4-3.3l-2.6-1.4l-5-4.2l-4.6-2.9l-0.5-0.3l-4.1-2.7l-3.6-2.1
			l-4.6-2.2l-4.2-1.8l-3.6-1.8l-6.1-4.1l-6.1-3.6l-1.9-0.8l-1.7-1.7l-0.3-0.4l-1.3-1.6l-1.6-3l-2.5-4.1l-2.1-3.4l-1.1-3.9l-1.9-3.7
			l-1.6-4.3l-1.5-5.3l-2.2-5.9l-2-4.6l-4-7.1l-1.4-1.7l-2.2-2.8l-3.2-4.2l-4.4-5.3l-4.1-5.3l-2.3-1.5l-2.1-1.5l-2.5-2.1l-1.9-0.7
			l-3.1-1.5l-2.1-0.5l-2.5-0.6l-3.1-0.6l-3.5-1.1l-3.1-1.9l-0.5-0.2l-2.3-2.3l-3.4-2.9l-6.2-7l-2-2.5l-2.1-2.6l-2.8-3.4l-3.4-3.6
			l-2.1-3.5l-0.9-3.5l-1.3-7.1l-0.9-7.8l-2-9.3l-2.9-9.5l-2.2-5.1l-2.2-4.9l-1.8-3.8l-1.7-3.4l-1.7-2.7l-1.4-2.8l-2.1-2.3l-0.4-0.4
			l-2.6-1.8l-2.8-1.7l-1.7-0.9l-3.7-2l-2-1l-2.1-1l-3.3-2.1l-3.4-1l-2.2-0.4h-0.7l-2.4,0.3l-2.5,0.5l-2.4,0.7l-5.6,2.5l-4.5,1.4
			l-2.6,0.9l-4.1,0.9l-2.6-0.1l-3-1.1l-3.5-1.7l-3.1-2.5l-2-1.5l-2.3-2.3l-2.7-1.9l-3-1.6l-2-0.6l-2.5-2.1l-2.2-1.5l-0.8-2.1
			l-0.9-3.1l-0.8-4.7l-1-5v-1.5l-0.2-0.6l-0.9-3l-1.2-3.4l-1.4-3.1l-1-3.9l-0.5-3.6l-0.3-2l0.1-1.6l0.6-3l0.1-3l1-3.5l1.1-3.1
			l0.8-3.6l1.8-7.8l0.5-2.5l1.1-4.6l0.2-3.5l-0.4-6v-9.1l-0.4-9.1l-0.2-2.5l-0.4-2.1l-0.5-3.6v-6.9l0.5-4.1v-4.6l0.5-5l-0.6-3.5
			l-0.8-4.2l-1.7-3.4l-3.6-3.5l-2.6-3l-3.6-3.5l-4.9-5.4l-4.8-5.3l-3.1-3.4l-1.5-1.7l-2.4-2.2l-3.5-2.6l-4.9-2.1l-6.7-2.2l-0.5-0.2
			l-6.7-1.1l-7.1-0.7l-4.1,0.3l-1.6,0.4l-3,1.5l-2.2,1.5l-2.6,1.9l-2.9,2.2l-2.6,2l-4,1.9l-4.2,0.6l-4.6-0.7l-3.6-1.3l-3.4-0.9
			l-4.1-2.8l-4.4-4.7l-2.3-5.4v-1.6l0.1-2.5l0.7-3.3l1.1-4.7v-1.8l0.1-2.2l-1.1-4.8l-1.1-5.1l-1.5-5l-2-3l-0.4-1.4l-0.5-2.3
			l-0.7-1.9V821l0.5-2l1.6-1l2.5-1l1.6-0.3l0.6-0.7l1-1.2l1.1-3l0.1-2l-0.3-5.4l-0.5-4l-0.5-2.6l-1-3.5l-1.8-2.7l-1-1.1l-1.4-2.1
			l-1.5-1.1l-0.5-2l0.1-2.5l0.4-2.6l0.7-1.9l1.5-3.4l1.8-2l2.6-3l2.7-2.4l2.6-2.5l2.1-2.1l2.4-2.3l1-3.1l0.5-3l-1.1-3.6l-1.8-1.5
			l-3.1-0.5l-4.2-0.6l-3.9-0.7l-3.5-1.8l-2.3-1.9l-1.1-2.5l-1-4.5l0.1-1.1l0.9-4.4l1.5-6.6l2-6l3-6.2l2.1-3.4l2.1-2.5l1.6-1.6
			l0.2-0.6l0.9-2l0.4-1.9l0.4-1.6l0.9-2.1l1.6-2.4l0.6-2.5l-0.9-3l-1.5-2.6l-1.2-1.8l-1.8-1.8l-1-1.1l-4-4l-1.4-2.2l-0.9-3.3
			l0.4-1.8l1.2-1.9l3.2-2.8l4.7-3l3-1.1l2.8-1.8l2-3l1.5-3l1-2.6l0.5-3l0.6-2l1-1.8l1.5-1.9l2.1-1.5l2.6-0.3l0.5-0.1l2.5,0.1
			l3.6,0.5l3.6,0.7l3.6,1.1l3.1,1l0.5,0.2l3.5,1l2.5,0.6l2.2-0.3h0.4l1.1-0.6l0.4-0.5l1.1-1.4l1.7-2.2l1.6-2.8l1.4-2.8l2-2.1l1.5-2
			l2.5-1.9l3.2-0.7l3.1-1.7l1.5-1.4l3.6-3.9l2.5-4l1.5-3.6l0.5-2l1.2-2.9l1.1-2.4l0.4-0.5l1.7-1.5l1.4-1.3l1.2-1.2l1.7-1.3l2.2-2.4
			l0.9-2.2l1.1-3.5l0.1-0.7v-2.3l0.1-1.5l-0.9-4.5l-2-2.6l-2-2.4l-2-2.1l-1.6-2.5l-1-2.5l-0.1-2.6l1.1-2.9l1.5-2.1l1.6-0.6l3.1-0.9
			l3-0.5h3.1l2.6,1l1.2,0.3l0.8,0.5l2.6,0.7l2-0.1l2.1-0.4l1.7-1.7l0.9-1.8l0.9-2.5l1.5-3.1l1.5-1.8l2.2-2.4l1-2.1l1.1-2.9l-0.1-3.8
			l-1.4-4.7l-2.2-4.9l-3.9-5l-2.4-4.3l-2.5-3.5l-0.3-0.4l-1.7-2.6l-2.1-3.5l-0.9-2.9l-1-3l-0.2-3.3l-1-3.6l-0.9-3.7l-0.9-3.1
			l-1.3-2.5l-2.1-2.9l-2-2.1l-1.9-0.9l-2.2-1.4l-2-2.2l-1.8-2.3l-3-5.1l-4.8-8.8l-3.7-7.9l-2.6-3.6l-1-2l-3.1-6l-1-2.5l-0.5-2.6v-2
			l-0.5-3l-1-2l-1.5-1.6l-2-0.5l-3.7-1.4l-1.6-1.1l-1.8-0.8l-1.9-1.8l-0.4-0.4l-1.5-3.5l1-2.9l1.7-2.4l1.4-2.2l0.2-1.2v-1.7l0.1-1.3
			v-1.2l0.2-2.8l1.5-1.7l2.6-1.7l3.6-2.6l4.5-3.6l1.4-1.4l3.6-3.3l4.2-3.4l6.2-2.4l5.1-2l4.2-2.4l3.5-1.8l2.2-1.3l1.2-0.6l5.2-1.3
			l6.3-2.7l6.7-3.5l1.2-0.9l5.1-3.9l1.4-0.9l1.7-1l3.3-1.9l2.1-1.5l3-2.5l2.6-1.9l2.1-2.4l2.1-1.5l1.6-1.4l1.4-1l0.3-2.4v-1.6l0.6-2
			l0.6-2.5l1.5-1.5l1.6-2l1.6-1.9l1.1-2.6l1.9-5.6l0.9-1.8l1.1-2.5l1-1.7l1.6-1.9l1.5-0.5l1.9-0.8l1.3-1.6l1.9-1.8l2.6-2l3-1.5
			l3.2-1.3l2.5-1.4l3.5-0.9l3.2-0.9l0.5-0.5l2.1-1.9l4.2-3.5l3.2-3.9l1.6-2.5l1.2-2.9v-1.6l-0.5-1.5l-1-0.5l-2.2,0.6l-2,1l-2,1.7
			l-1.5,1.7l-2.7,1.7l-2.5,1.9l-2.1,0.5l-2.2,0.4l-1.5-0.3l-1-1.5l-0.4-1.6v-1.2l0.5-1l1.7-3l0.3-0.8l1.6-3.6l2.5-6l2.6-3l2.7-2.9
			l0.4-0.5l1-0.7l2.6-1.7h0.9l1.6-0.3l2.5-0.1l1.3-0.5l2.3-1.4l2.6-2.5l2.5-1.3l0.7-0.7l2.9-2.1l2.2-1.6l0.9-1.4l1.2-1.6l0.5-2.1
			l1.9-1.8l1-1l2.1-1.1l2-0.5l3-1.7l3.7-2.3l5.1-4l3.8-2.9l3.9-4.7l3.6-4.7l2-2.9l2.9-4.7l2.7-6.4l1.5-3.5l1.2-1.8l1.1-2.5l1.3-1.7
			l1.8-1.8l1.7-1.4l2.7-1.9l2.5-3.5l1.7-2.5l0.3-0.8l1.3-2.7l0.8-1.9l0.5-2.2l1-2.6l1.1-3l2.5-5l2.6-5l2.1-4.5l1.4-2.6l3.6-6l0.7-1
			l0.7-1.4l1.2-3.5l0.5-2.5l-0.5-2l-0.5-0.7l-0.6-1l-2-2.6l-1.8-2.5l-0.4-3l0.1-1.5l2.7-3.8l0.9-2.3l0.5-3l1-2.5l0.6-2.2l1.9-2.6
			l1.7-2.5l2.6-1.9l1.9-0.9l3-3.1l1.6-3.9v-1.1l1-6l1.1-3.5l1.3-2.2l0.9-2.2l0.2-2.5l1.1-3l1.6-2.2l1.7-2.8l1.5-3l1.7-2.9l1.6-2.5
			l2.2-2.5l2.6-2.3l0.4-0.3l2.1-1.4l2.5-2l3.1-2.5l4.1-3.1l5.1-4l4.7-2.8l1.3-1.6l0.7-0.7l0.4-0.9l0.6-1.1v-2l-0.5-1.5l-1.1-1.5
			l-0.5-1.5l0.1-2.4l1-1.3l1-1l2.1-1l2.5-0.4l2-0.4l3.7,0.1l3.2-0.8l0.9-0.3l1.9-0.6l2.8-1.2l2.3-1.5l1.6-1.9l1.5-3.4l1.2-3.4
			l1.4-3.2l1.7-2.3l0.8-1.2l2.9-2.3l2.6-1.4l3.7-0.9l3.6-0.9l1.9-0.1l2.7-0.3l3.5,0.7l3.7,0.1l2.6-0.6l3-1.3l4.2-1.9l4-1.8l4.3-1.5
			l0.8-0.4l2.8-1.5L751.8,0z"/>
		<path id="_x31_778" class="st0" d="M1272.2,1518.1l0.5-3.5l1.1-2h1.5l1,3l1.1,3v3l-1.6,2.5l-3.1-1.5l-1-2.5L1272.2,1518.1z"/>
		<path id="_x31_779" class="st0" d="M1272.8,1564.9l1.6,0.5l2,4.5l-0.5,3.1v3l-1.5,1.5l-1-0.5l-2.1-0.5l-1-3.5l1.5-3.5v-3.1
			L1272.8,1564.9z"/>
		<path id="_x31_781" class="st0" d="M1241.8,1733.6l-1-1l-0.5-1.5l1-2.5l2.6,0.5l4.6,3l3.1,2l2,5l1.1,3.6l-0.5,2.5l-3.1,0.5
			l-2.1-1.5l-3.1-2l-1.5-3.1l-1.5-3L1241.8,1733.6z"/>
		<path id="_x31_782" class="st0" d="M1229.1,1770.9l-2.1-0.5l-0.5-1.5l0.5-1l-0.5-2l0.5-0.5l3.1-1.1h3.1l3.6,0.5l2,1v2l-2,1.6
			l-4.6,1.5H1229.1z"/>
		<path id="_x31_783" class="st0" d="M1258.3,1770.8l2.1,3.5l-0.5,6.6l-0.6,5.5l-2.5,7.1l-2.6,4.5l-3.5,5.1l-1.1,3.5l-3.5,5.5
			l-3.1,5.6l-2,6.5l-3.1,9.1l-2.6,6l-3,7.1l-2.1,7.5l-4.6,10.6l-3.5,9.1l-5.7,8.5l-5.1,8.6l-3,5.6l-5.7,9.5l-4.1,6.1l-0.5,4l-4,7.1
			l-4.7,7l-5.1,6.6l-3,4.5l-2.6,6.5l-4.6,10.1l-5.1,8.1l-3.6,7.5l-2.5,3.6l-3.1,6l-5.1,5l-5.7,9.6l-4.6,6.1l-3.5,6l-3.1,6.1
			l-3.1,4.5l-1.5,2l-3.1,6.6l-3,5l-2.6,6l-3.6,4.1l-3.1,2l-1.5-1l-1-2v-4l4.6-4.6l1.5-3.5l0.5-4.5v-5.6l0.5-3.5l1-1l4.6-1l3.1-2
			l2.6-4.1l2-8l0.5-3.6v-2.5l2.6-1.5l4.6-4.5l2-4.1l1.6-4.5l1.5-3.5l2.6-5l2.5-2.6l3.6-2l3.6-1.5l1.5-3l0.5-3l1-4.1l3.1-4l3.1-5
			l4.6-9.1l4.1-6.1l4.1-8l3-4.6l2.1-4.5l1-5l0.5-3.5l1-5.1l2.1-4.5l3.5-4.6l2.6-3.5l1.5-5l2.1-3l2-2.1l3.1-2.5l4.1-3l2-3.5l2.1-5.6
			l3.1-5.5l3-2l0.5-3.1v-5l3.1-5l2.6-3.1l2.5-3l2.1-4.5l1.5-5l0.5-4.1l-1.6-4l-0.5-2l-1-3v-2l1.5-2.1l2.6-0.5l3.6-0.5l6.1-4.5
			l3.1-9.6l1.5-9.1l3.1-7.5l3-5L1258.3,1770.8z"/>
		<path id="_x31_785" class="st0" d="M1218.4,1831.8l0.5-1.5l2.1-1l2.5,1.5l0.6,1.5v3.5l-1.6,2l-2,0.6l-1.6-1.1l-1-1l-0.5-1.5v-2.5
			L1218.4,1831.8z"/>
		<path id="_x31_786" class="st0" d="M1180,1886.7l1.6-1h2l1.6,1l0.5,1.5v3.1l-3.1,2l-2,2l-0.5,2l-0.5,1.5l-2.6,1.5l-3.6-0.5l-1-1.5
			l-0.5-3l0.5-3l2.5-2l2.1-1.5l2-1L1180,1886.7z"/>
		<path id="_x31_787" class="st0" d="M1164.7,1917.5l-1,1.5l-2.1,0.5h-1l-1-0.5l-1-3l1-2l1-0.5l1.5-2.1l1.6-1h3.6l1,1l-0.5,2
			l-2.1,2.1L1164.7,1917.5z"/>
		<path id="_x31_788" class="st0" d="M1158.1,1948.2v2.5l-2.1,2l-3.5-0.5l-1.6-1h-1v-3l1.5-1.5l3.1-0.5h2L1158.1,1948.2z"/>
		<path id="_x31_789" class="st0" d="M1127.4,1973.4l-2.1-2l-0.5-2l1-1l0.5-2l1.6-1.1l3-0.5l2.1,1l1,2.1l-1,4l-1.5,2L1127.4,1973.4z
			"/>
		<path id="_x31_790" class="st0" d="M1109.5,2000.6l1-1l0.5-1l2.6-1.5l1,1l2,1l0.6,1.5v1l-1.1,2l-1.5,3.5l-3.1-0.5l-1.5-1.5l-1-2.5
			L1109.5,2000.6z"/>
		<path id="_x31_791" class="st0" d="M1084.3,2002.2l1.6,0.5l1.5,1l1,1.5l2.1,2l1.5,1l-0.5,3l-2,1.5l-6.2-1l-1.5-1.5l-0.5-1.5v-5.5
			l0.5-1.5L1084.3,2002.2z"/>
		<path id="_x31_792" class="st0" d="M1104.9,2056.5h-2.5l-1.6-2l0.5-1.5l0.6-0.5l1.5-1.5l1.5-0.6l2.1,0.5l0.5,2.1v1.5l-1.5,1.5
			L1104.9,2056.5z"/>
		<path id="_x31_793" class="st0" d="M1040.4,2082.3l12.8,0.9l6.1-0.5l4.7-1l4.6,0.5l3,0.5l1.1,5l1,3.1l1.6,3l2,2.5l1.5,0.5l4.2-1
			l1.5-3.5l4.1,0.4l-0.5,5.6l-1.5,6v4.1l-0.5,4.5l-3.1,3l-4.1,2h-5.7l-3.5-1.5h-3.1l-2.6,1.6v6l0.5,2.5l2.6,2l1,6.1l-1.5,4.5
			l-2.5,6.5l-5.7,9.6l-7.1,9.1l-5.7,5l-8.7,5.1l-10.7,6.5l-7.2,6.1l-12.3,7.5l-3.1,1.6l-2.5,2l-2.1,1l-1-4.5l-1.6-3.1l-3-1l-4.7-3.5
			l-1.5-2l-1-3l-0.6-4.5v-1l1.6-3.1v-1.5l3-1.5l1.1,0.5l3,2l1.1,2l2,2.5l3.6,0.5l4.1-3l5.1-9.6l1.6-1l3.1-2l4.6-1.5l2.5-1l2.1-1.5
			l-1.6-2.5l-2.5-1.5l-3.6-1l-1.6-0.5l1.1-3.1l2.5-4l2.6-4.5l3.6-2l4.1-1.6l3-2.5l0.5-1.5l2.1-4l1-5.1v-7l-0.5-6l-1.6-4.6l-2.5-4.5
			l-2.1-4l-1-3.5l0.5-3.1l-0.5-2l1-1l3.1,2h4.1l1.5-1.5l-2.1-3l1.1-2L1040.4,2082.3z"/>
		<path id="_x31_796" class="st0" d="M965.1,2148.3l-1.6-1.5l-0.5-2.5l1.6-1.5l3-2.6l2.1-2l2.5-1l1.6-1h1l2.1,3l-0.5,5.6l-1.1,5.5v2
			l3.1,1.5l2.1,2l0.5,3.6l-1,3.5l-4.6,2.5l-4.6,1.5l-2.1,1.5l-3.6,2.6h-3.6l-2-2.1l-0.5-3.5l1-3l2.5-5l1.6-2.6l1-2.5V2148.3z"/>
		<path id="_x31_797" class="st0" d="M993.8,2155.8l-0.5,2.5v2l-1.5,2.1l-3.6-1l-1-2.6l-0.6-3l-1-4l0.5-3.5l2.6-0.5l2.5,1l1.1,1
			l1.5,2.5V2155.8z"/>
		<path id="_x31_798" class="st0" d="M882.2,2279.8h-2.6l-1-1l-1.5-2v-4.6l1.5-3l2.6-3.5l2-2l1.5-2l3.6-2.6l0.5,0.5l1.6,2.1l-1.5,7
			l-2.1,4l-2,4.1L882.2,2279.8z"/>
	</g>
</g>
</svg>
